PathFileType	4	(X/Y/Z)	/Users/niels/Desktop/University/Third Semester/Perception and Action/Exam/Gymnastics Motion Tracking/Code for Gym Tracking/Analyzed Data/Webcam_Backflip/id3_2_trajectory_Sports2D/id3_2_trajectory_Sports2D_px_person00.trc
DataRate	CameraRate	NumFrames	NumMarkers	Units	OrigDataRate	OrigDataStartFrame	OrigNumFrames
29.8125	29.8125	12	22	m	29.8125	20	160
Frame#	Time	Hip			RHip			RKnee			RAnkle			RBigToe			RSmallToe			RHeel			LHip			LKnee			LAnkle			LBigToe			LSmallToe			LHeel			Neck			Head			Nose			RShoulder			RElbow			RWrist			LShoulder			LElbow			LWrist		
		X1	Y1	Z1	X2	Y2	Z2	X3	Y3	Z3	X4	Y4	Z4	X5	Y5	Z5	X6	Y6	Z6	X7	Y7	Z7	X8	Y8	Z8	X9	Y9	Z9	X10	Y10	Z10	X11	Y11	Z11	X12	Y12	Z12	X13	Y13	Z13	X14	Y14	Z14	X15	Y15	Z15	X16	Y16	Z16	X17	Y17	Z17	X18	Y18	Z18	X19	Y19	Z19	X20	Y20	Z20	X21	Y21	Z21	X22	Y22	Z22
20	0.670859538784067	0.9671745586094369	-0.5658765824504923	0.0	0.9648414290998308	-0.5631883378676678	0.0	0.9959850451941223	-0.6728231757306253	0.0	0.9798536924825362	-0.7864116404626718	0.0	1.018191159117675	-0.8035722431560715	0.0	1.0097397719075663	-0.807066883139737	0.0	0.9690709829479606	-0.8018273501368778	0.0	0.972182180877877	-0.5624046341386979	0.0	0.9954425026990406	-0.6714243627225779	0.0	0.9794206616582445	-0.7795864970527147	0.0	1.0202735800749942	-0.7986457961580133	0.0	1.013571383416903	-0.794599552315139	0.0	0.9663246502738888	-0.7950755830568803	0.0	1.0273206631246412	-0.41385442954228974	0.0	1.0660123160008506	-0.3549985365420889	0.0	1.0676312467708626	-0.39564565864006207	0.0	1.0165118073758086	-0.4351607919621474	0.0	1.0620477894651468	-0.505907639155365	0.0	1.1203388396221141	-0.5465758850109239	0.0	1.0088084111066307	-0.427347414707756	0.0	1.0285860131237432	-0.4965874926236745	0.0	1.0660058480603358	-0.5387531214698386	0.0
21	0.7044025157232703	0.964975683288388	-0.563364591208377	0.0	0.9627616888835547	-0.5602920738043383	0.0	0.9962498083639164	-0.6704353394443748	0.0	0.9799734010024698	-0.7843368830503541	0.0	1.019382340005221	-0.8015213528938907	0.0	1.01067583033594	-0.8049704097614732	0.0	0.9691127132796471	-0.7997358207437002	0.0	0.9697210131195939	-0.5596005826462054	0.0	0.995161446566025	-0.6687643950356513	0.0	0.9791224159989633	-0.7775241470701321	0.0	1.0206070985064655	-0.7971778524117535	0.0	1.0140015395701374	-0.7928802516054101	0.0	0.9659497443631743	-0.7926876193145552	0.0	1.0305151198072824	-0.4140654597714015	0.0	1.070819375173767	-0.3563462647537228	0.0	1.0716246856350098	-0.39615122883989756	0.0	1.0186510113576783	-0.4349969102294219	0.0	1.0613888901334654	-0.5081284001186162	0.0	1.116499191514718	-0.553443663024236	0.0	1.011759118993015	-0.4267835396567754	0.0	1.0219756890223763	-0.4984708751045523	0.0	1.046531865456704	-0.545076581452472	0.0
22	0.7379454926624737	0.9630332397844729	-0.5614929523628035	0.0	0.9611160127849259	-0.5582247395606228	0.0	0.9968956348668396	-0.6686513040847959	0.0	0.9802079682469846	-0.7828929046724422	0.0	1.020420529765169	-0.8001664488554849	0.0	1.011386993524539	-0.8035534919512931	0.0	0.9692622451836648	-0.7981387601876498	0.0	0.9672966526451172	-0.5576729229324497	0.0	0.9951094660640758	-0.6668220041070096	0.0	0.978899495400946	-0.776103305489741	0.0	1.02089038479309	-0.7963099459221109	0.0	1.0142282895141663	-0.7918950513643573	0.0	0.96583318494495	-0.7909829957921736	0.0	1.0333910052579862	-0.41509203502914044	0.0	1.074896250657648	-0.35812556955927966	0.0	1.0751328029961977	-0.39720135686098507	0.0	1.0205351106446212	-0.4357566822466615	0.0	1.0603011960895248	-0.5109736790670377	0.0	1.1125250709116057	-0.5602363536330773	0.0	1.0146801380883361	-0.42741209390726786	0.0	1.0194677818413116	-0.5013265884283481	0.0	1.0362785551679614	-0.5513411398033391	0.0
23	0.771488469601677	0.9614607703297472	-0.5606170541020594	0.0	0.9599846727318815	-0.5573131545858875	0.0	0.9979028999195699	-0.6677689978716893	0.0	0.9805134084242693	-0.7822441157575617	0.0	1.021359194195821	-0.799618212473794	0.0	1.0119695932859416	-0.8029446183967441	0.0	0.9694163323543035	-0.7972799125891807	0.0	0.9651915989477491	-0.5569290738649262	0.0	0.9954258510266432	-0.6659090722718746	0.0	0.9787827223232178	-0.7754714617725023	0.0	1.0211765653711384	-0.7961105806425149	0.0	1.014283676619091	-0.7916867397252177	0.0	0.9660182445803657	-0.7901516369923043	0.0	1.0358017092187979	-0.4169729901572298	0.0	1.0781278596046404	-0.3603288421671556	0.0	1.0780321982176553	-0.39891169014341676	0.0	1.0221191700125174	-0.43748372797572604	0.0	1.0588555097254095	-0.5145039016875066	0.0	1.1086174785449794	-0.5669086922726269	0.0	1.0174504584508062	-0.4292964396171625	0.0	1.022760092639248	-0.5052302350979512	0.0	1.0390157213469353	-0.557583123269554	0.0
24	0.8050314465408803	0.96035971132619	-0.5609668608531472	0.0	0.9594273832341645	-0.5577047543772653	0.0	0.9992629256255149	-0.6679555621039214	0.0	0.9808215850440016	-0.7825050776124314	0.0	1.0221604230781938	-0.7999072580309841	0.0	1.0124839504464338	-0.8031980850061827	0.0	0.9695092565590201	-0.79732731041111	0.0	0.9636610900379711	-0.5574635508790866	0.0	0.9961907016157843	-0.6661713763515644	0.0	0.9787881838889464	-0.7757432197894407	0.0	1.0214894313600107	-0.7966313089269413	0.0	1.0141923909096302	-0.792228566900729	0.0	0.9664713289845984	-0.7902612226652566	0.0	1.0376535827551374	-0.41963498353597634	0.0	1.0805211526947054	-0.36294525817578344	0.0	1.0803107464186201	-0.4012614694972	0.0	1.0233662574379163	-0.4400884259619274	0.0	1.0570819614455937	-0.5187695997806449	0.0	1.1047924440034715	-0.5736838392901011	0.0	1.0198724660198397	-0.4322981363806668	0.0	1.0302917622188144	-0.5100557954419017	0.0	1.0511900896498831	-0.5640889241898283	0.0
25	0.8385744234800837	0.9597834744796907	-0.5626280416290378	0.0	0.9594889729570173	-0.5593748442607679	0.0	1.0009411444279075	-0.6692386311314006	0.0	0.9810651335530526	-0.7837644332951966	0.0	1.0227021670392173	-0.8010516821995857	0.0	1.012923993354718	-0.8043320039798799	0.0	0.9695237728923741	-0.7983928639433243	0.0	0.9627846077483038	-0.5592045370441434	0.0	0.9973599588063164	-0.6676125131458022	0.0	0.9789055597529768	-0.7769946449426985	0.0	1.021772626566431	-0.7979233291445061	0.0	1.0139600173039371	-0.7934747967630684	0.0	0.9670842536989476	-0.7912932619260067	0.0	1.0389186376932664	-0.4229084700868453	0.0	1.0822510916931232	-0.36599584204241115	0.0	1.0820193962053495	-0.40417039870240934	0.0	1.024295616271519	-0.44331835302704375	0.0	1.0548935363953955	-0.5236829278697823	0.0	1.1007958952521322	-0.5808408341099042	0.0	1.0216669484711047	-0.4360745029123966	0.0	1.038211472138722	-0.5154502875709762	0.0	1.0650517351868007	-0.5710970034133535	0.0
26	0.8721174004192871	0.9597320687847484	-0.5655318591805603	0.0	0.9601877896383906	-0.5621560274522382	0.0	1.0028147255461675	-0.671541573181968	0.0	0.9812174067092411	-0.786080838526457	0.0	1.0229020154991033	-0.8031023294058309	0.0	1.0132981969962573	-0.8063561676681977	0.0	0.9694806257735992	-0.8005468506378715	0.0	0.9624587374838431	-0.5619735840282915	0.0	0.9987818301532264	-0.6701301937617505	0.0	0.9790948335669335	-0.7792805916615942	0.0	1.0219259785857935	-0.8000493760081674	0.0	1.0135935310455544	-0.7954406682818511	0.0	0.9677214679865459	-0.793245537809553	0.0	1.039649453271454	-0.4265249947081128	0.0	1.0836004803906159	-0.3694762485070511	0.0	1.0832297614524156	-0.4075195066394601	0.0	1.0250152291115076	-0.4467587314379293	0.0	1.0520241698162816	-0.5289110664953119	0.0	1.0960746334494154	-0.5884473629458385	0.0	1.0226445778650493	-0.44014162866185164	0.0	1.0430028179624677	-0.5209302396608477	0.0	1.0741255557405762	-0.5785894493382655	0.0
27	0.9056603773584905	0.960199793518421	-0.5694533776910535	0.0	0.9615000572045573	-0.5657835346805388	0.0	1.0046550449126	-0.6747069873552741	0.0	0.9812840796328803	-0.7894318437232266	0.0	1.0227652636868076	-0.8060938418499447	0.0	1.013613115830135	-0.8092535179256836	0.0	0.9694050410792139	-0.8037453260255989	0.0	0.9625576746411962	-0.5655322290879966	0.0	1.0002728578746047	-0.6735283951910676	0.0	0.9793140548428635	-0.7826261601729153	0.0	1.0218875410628057	-0.803046110300744	0.0	1.0131384619101738	-0.798205951762218	0.0	0.9682988344633802	-0.7961396778057002	0.0	1.039970716501019	-0.4301427188027299	0.0	1.084812561536303	-0.37327326589635834	0.0	1.0840237976463643	-0.4111176063394541	0.0	1.0256701618329966	-0.44993606315584445	0.0	1.0480400497749556	-0.5338595668593108	0.0	1.089788849376366	-0.5961650910446463	0.0	1.022886965968842	-0.4440183884495775	0.0	1.0430332292207063	-0.5259880059726539	0.0	1.0756557505906237	-0.5862108154151431	0.0
28	0.9392033542976937	0.9612073215162041	-0.5740361149311518	0.0	0.9633640239573724	-0.5699491548233997	0.0	1.0061770892458153	-0.678485711410975	0.0	0.981274905765017	-0.7936082673403935	0.0	1.0223120421616527	-0.8099098032435367	0.0	1.013755009286666	-0.8128892449728328	0.0	0.9692928043397008	-0.8077265284527728	0.0	0.9630852480378007	-0.5696232730638682	0.0	1.0016569843562062	-0.6775257103083991	0.0	0.9795423556571274	-0.786917878911139	0.0	1.0216271176307614	-0.8068048002755532	0.0	1.012648275828662	-0.8017742921810006	0.0	0.9687952251688968	-0.7998920587903013	0.0	1.0400502747027487	-0.43342935219447865	0.0	1.085969697514656	-0.37713727550406567	0.0	1.0845016551620759	-0.41471140593826045	0.0	1.026340721266746	-0.45247135846411507	0.0	1.0424680991062083	-0.5377366267852699	0.0	1.0809065448130695	-0.6032164196904227	0.0	1.0227349231726584	-0.44735434555137854	0.0	1.038386698261652	-0.5301250488018103	0.0	1.0696742717413021	-0.5932535292129382	0.0
29	0.9727463312368971	0.9627733484825844	-0.5788400490606308	0.0	0.9656748103543147	-0.5743256819692759	0.0	1.0071102486266328	-0.6825211917418605	0.0	0.9812067946092684	-0.7981762754802159	0.0	1.0215347039292422	-0.8141781025438523	0.0	1.013492119195779	-0.8169203432895384	0.0	0.9691288007468786	-0.8120118731019041	0.0	0.9641721133372734	-0.5739654541189063	0.0	1.0027528186894592	-0.6817668493000633	0.0	0.9797745271729424	-0.7917915064893302	0.0	1.021117369588061	-0.8109445503161482	0.0	1.0121434746502502	-0.8059058687788567	0.0	0.9691863689293778	-0.804209454897973	0.0	1.0400707502033923	-0.4361281916612841	0.0	1.0870232925961656	-0.3807176441155287	0.0	1.084785397874875	-0.4180209358671208	0.0	1.0270176084633316	-0.45413988217615125	0.0	1.034987502191257	-0.5396498308087261	0.0	1.0684263476519864	-0.6084360472915233	0.0	1.0226272981624367	-0.4499344087377824	0.0	1.0301900016662717	-0.5327989070701215	0.0	1.0575736853780286	-0.5986800076064529	0.0
30	1.0062893081761004	0.964878993785484	-0.5833963721502182	0.0	0.9682576547717741	-0.5785400462271341	0.0	1.0072274669373593	-0.6863928716121046	0.0	0.9810877576218175	-0.8025585126832135	0.0	1.020408209150128	-0.818333265950063	0.0	1.0126035396917905	-0.8208317507137612	0.0	0.968924375965068	-0.8160265186639659	0.0	0.9659723934587816	-0.5782107331340958	0.0	1.0033753850931022	-0.6858409380770574	0.0	0.9800182471599586	-0.7966589094582756	0.0	1.0204005188015883	-0.8148660817948108	0.0	1.011679109971994	-0.8101107054839153	0.0	0.9694276009944366	-0.8086059151447861	0.0	1.0402143467796636	-0.43805083300871056	0.0	1.087949959247433	-0.38363029982699687	0.0	1.085017396815676	-0.4207490149253044	0.0	1.0276729434567546	-0.4548239860056054	0.0	1.0255790191081031	-0.5387232264486752	0.0	1.0516533592827315	-0.6103418879895371	0.0	1.0229550631135143	-0.45159883805959367	0.0	1.0200122344212739	-0.5333497779614456	0.0	1.0411753813401035	-0.6011869001122079	0.0
31	1.039832285115304	0.96746687885343	-0.5872082074176709	0.0	0.970884435247043	-0.5821327350279393	0.0	1.0063596113935556	-0.6896827571360203	0.0	0.9808836595211908	-0.8061280115111203	0.0	1.0188889723888312	-0.8217755985281483	0.0	1.0109565256606865	-0.8240655570903616	0.0	0.9687068411337527	-0.819233400613359	0.0	0.9685404586940052	-0.5819201090737923	0.0	1.0033497794257509	-0.6892987487075297	0.0	0.9802734367293003	-0.8008325101290806	0.0	1.0196103429661703	-0.817966479154333	0.0	1.0113658947680135	-0.8137984645813208	0.0	0.969488937077228	-0.8125074514706679	0.0	1.040638781537686	-0.4390405693233102	0.0	1.0888481299949118	-0.3855174845972386	0.0	1.0853528036200069	-0.4225749428168872	0.0	1.0283103213927323	-0.4544611654909435	0.0	1.014609654772771	-0.5342851793468835	0.0	1.0305064588735429	-0.6073260404139463	0.0	1.0239659831742143	-0.45219207373887027	0.0	1.0093029042923882	-0.5310205264735881	0.0	1.0220012950194135	-0.5992967781716314	0.0
